<svg xmlns:xlink="http://www.w3.org/1999/xlink" xmlns="http://www.w3.org/2000/svg" width="208" height="18" viewBox="0 0 208 18"><g transform="matrix(.53159 0 0 .53099 -2.3053e-8 .00026549)"><path d="m4.3367e-8 4.2357e-8h24.328l27.469 13.117v-13.117h13.629v33.898h-15.637l-36.16-17.285v17.285h-13.629z"/><path d="m67.484 4.2357e-8h57.402v7.7656h-33.281v5.4531h23.664v7.7656h-23.664v5.1445h33.281v7.7695h-57.402z"/><path d="m166.96 13.219c2.418-0.20313 3.2422-1.8008 3.2422-3.3945 0-1.6992-0.97656-3.0352-2.9844-3.0352h-17.488v6.4297zm-40.02-13.219h55.195c1.3359 0 3.9609 0.15625 6.4297 1.543 2.4688 1.3906 4.4219 4.168 4.4219 8.6406 0 3.293-2.6719 5.6602-6.0156 7.2539 3.3438 0.5664 6.0156 3.293 6.0156 7.8164v8.6445h-22.785v-8.6445c0-2.0547-0.92578-5.1914-4.8359-5.1914h-15.637v13.836h-22.789z"/><path d="m232.29 26.129c6.2266 0 8.1797-4.4726 8.1797-9.0508 0-4.7344-2.2109-9.3125-8.4375-9.3125h-4.6797c-6.2227 0-8.4336 4.5781-8.4336 9.3125 0 4.6797 2.2109 9.0508 8.1758 9.0508zm-19.238 7.7695c-10.75 0-18-7.1523-18-16.977s7.3047-16.922 18-16.922h33.281c10.699 0 18.004 7.0976 18.004 16.922s-7.2539 16.977-18.004 16.977z"/><path d="m266.39 4.2357e-8h24.332l27.465 13.117v-13.117h13.633v33.898h-15.637l-36.16-17.285v17.285h-13.633z"/><path d="m333.88 4.2357e-8h57.402v7.7656h-33.281v5.4531h23.664v7.7656h-23.664v5.1445h33.281v7.7695h-57.402z"/></g></svg>